<svg class="w-6 h-6" width="24" height="24" viewBox="0 0 24 24" fill="none" xmlns="http://www.w3.org/2000/svg"><path d="M15 5C19.1376 5 21.9433 7.97802 22.9649 11.7383C23.0113 11.9096 23.0113 12.0904 22.9649 12.2617C21.9429 16.0338 19.1364 19 15 19C12.996 19 10.9127 18.2929 9.20411 17.127C7.49664 15.9618 6.08217 14.2806 5.53517 12.2617C5.48875 12.0904 5.4887 11.9096 5.53517 11.7383C6.08224 9.72457 7.49638 8.04308 9.20314 6.87695C10.9112 5.71001 12.9951 5 15 5ZM15 7C13.445 7 11.7489 7.56036 10.332 8.52832C9.00057 9.43798 7.98686 10.6556 7.54298 11.998C7.98612 13.3463 8.99862 14.5663 10.3311 15.4756C11.7475 16.4421 13.4441 17 15 17C17.9005 17 20.0529 15.0208 20.959 12C20.0524 8.98682 17.899 7 15 7Z" fill="#686583" style="fill-opacity:1;"/><path d="M17 12.5V12C17 11.4477 17.4477 11 18 11C18.5523 11 19 11.4477 19 12V12.5C19 13.0523 18.5523 13.5 18 13.5C17.4477 13.5 17 13.0523 17 12.5Z" fill="#686583" style="fill-opacity:1;"/><path d="M12.9945 11.9997C12.9946 9.63735 13.7716 7.34007 15.2055 5.46261L15.2719 5.38449C15.6186 5.01529 16.1955 4.96112 16.6068 5.27511C17.0458 5.61032 17.1296 6.23854 16.7943 6.67745L16.5824 6.96749C15.5508 8.43974 14.9946 10.1962 14.9945 11.9997L15.0023 12.3601C15.0712 14.0367 15.6194 15.6587 16.5824 17.0329L16.7943 17.323L16.8529 17.4079C17.1179 17.8397 17.0181 18.4102 16.6068 18.7243C16.1954 19.0386 15.6187 18.9845 15.2719 18.615L15.2055 18.5368L14.9438 18.1804C13.7613 16.4929 13.0879 14.5009 13.0033 12.4421L12.9945 11.9997Z" fill="#686583" style="fill-opacity:1;"/><path d="M6.00002 10.6699C6 9.50993 5.69298 8.56766 5.14943 7.87984C4.72606 7.34411 4.11835 6.91245 3.28517 6.65523C3.10317 7.19755 2.99048 7.92773 3.00881 8.72652C3.0354 9.88275 3.32466 10.8677 3.73342 11.3662C4.01758 11.7129 4.03438 12.2028 3.7842 12.5664L3.73049 12.6367C3.31864 13.1349 3.02755 14.1186 3.00099 15.2734C2.98266 16.0727 3.09714 16.8029 3.28127 17.3447C4.11628 17.0876 4.72545 16.6566 5.14943 16.1201C5.69298 15.4323 6 14.49 6.00002 13.33C6.00002 12.7777 6.44773 12.33 7.00002 12.33C7.55229 12.33 8.00002 12.7778 8.00002 13.33C8 14.84 7.59766 16.2482 6.71877 17.3603C5.88825 18.4112 4.69041 19.1233 3.19533 19.4306L2.89259 19.4863C2.5066 19.5499 2.1189 19.383 1.90041 19.0585C1.23118 18.0647 0.970966 16.5745 1.00197 15.2265C1.02698 14.1415 1.24551 12.945 1.76369 11.997C1.251 11.05 1.03376 9.8561 1.00881 8.77339C0.977834 7.42678 1.23555 5.93832 1.89748 4.94527L1.98732 4.83003C2.2131 4.57963 2.55345 4.45772 2.89259 4.51363L3.19533 4.56929C4.69041 4.87659 5.88825 5.58868 6.71877 6.6396C7.59766 7.75174 8 9.15992 8.00002 10.6699C8.00002 11.2222 7.55229 11.6699 7.00002 11.6699C6.44773 11.6699 6.00002 11.2222 6.00002 10.6699Z" fill="#686583" style="fill-opacity:1;"/><path d="M13.7998 2V2.00098C14.5102 1.99917 15.198 2.24895 15.7412 2.70703C16.2173 3.10858 16.5553 3.64652 16.7109 4.24512L16.7666 4.50488V4.50781L16.9971 5.9082L17.0078 6.00977C17.039 6.51561 16.6827 6.97271 16.1719 7.05664C15.6271 7.14603 15.1131 6.77716 15.0234 6.23242L14.793 4.83203V4.83105C14.7531 4.59862 14.6325 4.38745 14.4521 4.23535C14.2708 4.08245 14.0409 3.99912 13.8037 4H10.0723C10.7318 4.98352 11.2512 6.06033 11.4424 7.0752C11.5444 7.61775 11.188 8.1408 10.6455 8.24316C10.1028 8.34541 9.57987 7.98794 9.47752 7.44531C9.28052 6.39968 8.48647 5.03999 7.47752 3.90918L7.27245 3.68652C6.9985 3.39618 6.92392 2.97006 7.08202 2.60352C7.24022 2.23724 7.60097 2 7.99999 2H13.7998Z" fill="#686583" style="fill-opacity:1;"/><path d="M10.9834 16.02C11.5012 16.0168 11.93 16.4076 11.9844 16.9116L11.9902 17.0142L11.9844 17.3335C11.9476 18.2623 11.7244 19.168 11.3359 20.0005H13.8037L13.8926 19.9966C14.0979 19.9791 14.2935 19.898 14.4521 19.7642C14.6328 19.6118 14.7534 19.4004 14.793 19.1675L15.0234 17.7681C15.1129 17.2232 15.627 16.8535 16.1719 16.9429C16.7168 17.0324 17.0866 17.5473 16.9971 18.0923L16.7666 19.4917V19.4946C16.6492 20.1966 16.2853 20.8346 15.7412 21.2935C15.1981 21.7514 14.5102 22.0013 13.7998 21.9995V22.0005H9.49999C9.107 22.0005 8.75064 21.7698 8.58886 21.4116C8.42713 21.0534 8.48998 20.6332 8.74999 20.3384L8.89647 20.1646C9.56202 19.3364 9.94422 18.3161 9.98632 17.2544L9.99022 17.0259L9.99413 16.9243C10.042 16.4197 10.4657 16.0235 10.9834 16.02Z" fill="#686583" style="fill-opacity:1;"/></svg>